<mxfile host="app.diagrams.net" agent="Mozilla/5.0 (Windows NT 10.0; Win64; x64) AppleWebKit/537.36 (KHTML, like Gecko) Chrome/141.0.0.0 Safari/537.36" version="28.2.5">
  <diagram name="第 1 页" id="ymwS_IY8MIXRyYueqAV2">
    <mxGraphModel dx="721" dy="435" grid="1" gridSize="10" guides="1" tooltips="1" connect="1" arrows="1" fold="1" page="1" pageScale="1" pageWidth="1169" pageHeight="827" math="0" shadow="0">
      <root>
        <mxCell id="0" />
        <mxCell id="1" parent="0" />
        <mxCell id="_RP0dMVc5jquQAwwALMM-1" value="" style="rounded=0;whiteSpace=wrap;html=1;fillStyle=auto;fillColor=#808080;" parent="1" vertex="1">
          <mxGeometry x="200" y="240" width="320" height="80" as="geometry" />
        </mxCell>
        <mxCell id="amTEWInF5iUkod_gDk52-12" value="80" style="text;html=1;align=center;verticalAlign=middle;resizable=0;points=[];autosize=1;strokeColor=none;fillColor=none;rotation=0;" parent="1" vertex="1">
          <mxGeometry x="340" y="188" width="40" height="30" as="geometry" />
        </mxCell>
        <mxCell id="amTEWInF5iUkod_gDk52-11" value="" style="endArrow=classic;startArrow=classic;html=1;rounded=0;" parent="1" edge="1">
          <mxGeometry width="50" height="50" relative="1" as="geometry">
            <mxPoint x="200" y="210" as="sourcePoint" />
            <mxPoint x="520" y="210" as="targetPoint" />
          </mxGeometry>
        </mxCell>
        <mxCell id="zKcQJ6je26KNiS40WJ7N-1" value="" style="endArrow=classic;html=1;rounded=0;" parent="1" edge="1">
          <mxGeometry width="50" height="50" relative="1" as="geometry">
            <mxPoint x="520" y="320" as="sourcePoint" />
            <mxPoint x="520" y="360" as="targetPoint" />
          </mxGeometry>
        </mxCell>
        <mxCell id="zKcQJ6je26KNiS40WJ7N-23" value="p=1.5" style="text;html=1;align=center;verticalAlign=middle;resizable=0;points=[];autosize=1;strokeColor=none;fillColor=none;" parent="1" vertex="1">
          <mxGeometry x="512" y="320" width="50" height="30" as="geometry" />
        </mxCell>
        <mxCell id="zKcQJ6je26KNiS40WJ7N-24" value="" style="endArrow=none;html=1;rounded=0;" parent="1" edge="1">
          <mxGeometry width="50" height="50" relative="1" as="geometry">
            <mxPoint x="520" y="240" as="sourcePoint" />
            <mxPoint x="520" y="200" as="targetPoint" />
          </mxGeometry>
        </mxCell>
        <mxCell id="zKcQJ6je26KNiS40WJ7N-26" value="" style="ellipse;whiteSpace=wrap;html=1;aspect=fixed;" parent="1" vertex="1">
          <mxGeometry x="520" y="240" width="10" height="10" as="geometry" />
        </mxCell>
        <mxCell id="zKcQJ6je26KNiS40WJ7N-27" value="" style="ellipse;whiteSpace=wrap;html=1;aspect=fixed;" parent="1" vertex="1">
          <mxGeometry x="520" y="275" width="10" height="10" as="geometry" />
        </mxCell>
        <mxCell id="zKcQJ6je26KNiS40WJ7N-28" value="" style="ellipse;whiteSpace=wrap;html=1;aspect=fixed;" parent="1" vertex="1">
          <mxGeometry x="520" y="309" width="10" height="10" as="geometry" />
        </mxCell>
        <mxCell id="zKcQJ6je26KNiS40WJ7N-5" value="" style="group;flipH=1;" parent="1" vertex="1" connectable="0">
          <mxGeometry x="531" y="240" width="10" height="80" as="geometry" />
        </mxCell>
        <mxCell id="zKcQJ6je26KNiS40WJ7N-6" value="" style="endArrow=none;html=1;rounded=0;startSize=6;exitX=0.053;exitY=1.001;exitDx=0;exitDy=0;exitPerimeter=0;" parent="zKcQJ6je26KNiS40WJ7N-5" edge="1">
          <mxGeometry width="50" height="50" relative="1" as="geometry">
            <mxPoint y="70" as="sourcePoint" />
            <mxPoint x="10" y="80" as="targetPoint" />
          </mxGeometry>
        </mxCell>
        <mxCell id="zKcQJ6je26KNiS40WJ7N-7" value="" style="endArrow=none;html=1;rounded=0;startSize=6;exitX=0.053;exitY=1.001;exitDx=0;exitDy=0;exitPerimeter=0;" parent="zKcQJ6je26KNiS40WJ7N-5" edge="1">
          <mxGeometry width="50" height="50" relative="1" as="geometry">
            <mxPoint y="60" as="sourcePoint" />
            <mxPoint x="10" y="70" as="targetPoint" />
          </mxGeometry>
        </mxCell>
        <mxCell id="zKcQJ6je26KNiS40WJ7N-8" value="" style="endArrow=none;html=1;rounded=0;startSize=6;exitX=0.053;exitY=1.001;exitDx=0;exitDy=0;exitPerimeter=0;" parent="zKcQJ6je26KNiS40WJ7N-5" edge="1">
          <mxGeometry width="50" height="50" relative="1" as="geometry">
            <mxPoint y="50" as="sourcePoint" />
            <mxPoint x="10" y="60" as="targetPoint" />
          </mxGeometry>
        </mxCell>
        <mxCell id="zKcQJ6je26KNiS40WJ7N-9" value="" style="endArrow=none;html=1;rounded=0;startSize=6;exitX=0.053;exitY=1.001;exitDx=0;exitDy=0;exitPerimeter=0;" parent="zKcQJ6je26KNiS40WJ7N-5" edge="1">
          <mxGeometry width="50" height="50" relative="1" as="geometry">
            <mxPoint y="40" as="sourcePoint" />
            <mxPoint x="10" y="50" as="targetPoint" />
          </mxGeometry>
        </mxCell>
        <mxCell id="zKcQJ6je26KNiS40WJ7N-10" value="" style="endArrow=none;html=1;rounded=0;startSize=6;exitX=0.053;exitY=1.001;exitDx=0;exitDy=0;exitPerimeter=0;" parent="zKcQJ6je26KNiS40WJ7N-5" edge="1">
          <mxGeometry width="50" height="50" relative="1" as="geometry">
            <mxPoint y="30" as="sourcePoint" />
            <mxPoint x="10" y="40" as="targetPoint" />
          </mxGeometry>
        </mxCell>
        <mxCell id="zKcQJ6je26KNiS40WJ7N-11" value="" style="endArrow=none;html=1;rounded=0;startSize=6;exitX=0.053;exitY=1.001;exitDx=0;exitDy=0;exitPerimeter=0;" parent="zKcQJ6je26KNiS40WJ7N-5" edge="1">
          <mxGeometry width="50" height="50" relative="1" as="geometry">
            <mxPoint y="20" as="sourcePoint" />
            <mxPoint x="10" y="30" as="targetPoint" />
          </mxGeometry>
        </mxCell>
        <mxCell id="zKcQJ6je26KNiS40WJ7N-12" value="" style="endArrow=none;html=1;rounded=0;startSize=6;exitX=0.053;exitY=1.001;exitDx=0;exitDy=0;exitPerimeter=0;" parent="zKcQJ6je26KNiS40WJ7N-5" edge="1">
          <mxGeometry width="50" height="50" relative="1" as="geometry">
            <mxPoint y="10" as="sourcePoint" />
            <mxPoint x="10" y="20" as="targetPoint" />
          </mxGeometry>
        </mxCell>
        <mxCell id="zKcQJ6je26KNiS40WJ7N-13" value="" style="endArrow=none;html=1;rounded=0;startSize=6;exitX=0.053;exitY=1.001;exitDx=0;exitDy=0;exitPerimeter=0;" parent="zKcQJ6je26KNiS40WJ7N-5" edge="1">
          <mxGeometry width="50" height="50" relative="1" as="geometry">
            <mxPoint as="sourcePoint" />
            <mxPoint x="10" y="10" as="targetPoint" />
          </mxGeometry>
        </mxCell>
        <mxCell id="zKcQJ6je26KNiS40WJ7N-29" value="" style="endArrow=none;html=1;rounded=0;" parent="1" edge="1">
          <mxGeometry width="50" height="50" relative="1" as="geometry">
            <mxPoint x="531" y="320" as="sourcePoint" />
            <mxPoint x="531" y="240" as="targetPoint" />
          </mxGeometry>
        </mxCell>
        <mxCell id="myBx_Amw5foEbO6-DIyn-1" value="" style="group" parent="1" vertex="1" connectable="0">
          <mxGeometry x="160" y="200" width="40" height="120" as="geometry" />
        </mxCell>
        <mxCell id="amTEWInF5iUkod_gDk52-8" value="" style="endArrow=none;html=1;rounded=0;" parent="myBx_Amw5foEbO6-DIyn-1" edge="1">
          <mxGeometry width="50" height="50" relative="1" as="geometry">
            <mxPoint x="40" y="40" as="sourcePoint" />
            <mxPoint x="40" as="targetPoint" />
          </mxGeometry>
        </mxCell>
        <mxCell id="zKcQJ6je26KNiS40WJ7N-4" value="" style="group" parent="myBx_Amw5foEbO6-DIyn-1" vertex="1" connectable="0">
          <mxGeometry x="30" y="40" width="10" height="80" as="geometry" />
        </mxCell>
        <mxCell id="N4_VROy1ueIJlBlE-Fv6-36" value="" style="endArrow=none;html=1;rounded=0;startSize=6;exitX=0.053;exitY=1.001;exitDx=0;exitDy=0;exitPerimeter=0;" parent="zKcQJ6je26KNiS40WJ7N-4" edge="1">
          <mxGeometry width="50" height="50" relative="1" as="geometry">
            <mxPoint x="10" y="70" as="sourcePoint" />
            <mxPoint y="80" as="targetPoint" />
          </mxGeometry>
        </mxCell>
        <mxCell id="N4_VROy1ueIJlBlE-Fv6-37" value="" style="endArrow=none;html=1;rounded=0;startSize=6;exitX=0.053;exitY=1.001;exitDx=0;exitDy=0;exitPerimeter=0;" parent="zKcQJ6je26KNiS40WJ7N-4" edge="1">
          <mxGeometry width="50" height="50" relative="1" as="geometry">
            <mxPoint x="10" y="60" as="sourcePoint" />
            <mxPoint y="70" as="targetPoint" />
          </mxGeometry>
        </mxCell>
        <mxCell id="N4_VROy1ueIJlBlE-Fv6-38" value="" style="endArrow=none;html=1;rounded=0;startSize=6;exitX=0.053;exitY=1.001;exitDx=0;exitDy=0;exitPerimeter=0;" parent="zKcQJ6je26KNiS40WJ7N-4" edge="1">
          <mxGeometry width="50" height="50" relative="1" as="geometry">
            <mxPoint x="10" y="50" as="sourcePoint" />
            <mxPoint y="60" as="targetPoint" />
          </mxGeometry>
        </mxCell>
        <mxCell id="N4_VROy1ueIJlBlE-Fv6-39" value="" style="endArrow=none;html=1;rounded=0;startSize=6;exitX=0.053;exitY=1.001;exitDx=0;exitDy=0;exitPerimeter=0;" parent="zKcQJ6je26KNiS40WJ7N-4" edge="1">
          <mxGeometry width="50" height="50" relative="1" as="geometry">
            <mxPoint x="10" y="40" as="sourcePoint" />
            <mxPoint y="50" as="targetPoint" />
          </mxGeometry>
        </mxCell>
        <mxCell id="N4_VROy1ueIJlBlE-Fv6-40" value="" style="endArrow=none;html=1;rounded=0;startSize=6;exitX=0.053;exitY=1.001;exitDx=0;exitDy=0;exitPerimeter=0;" parent="zKcQJ6je26KNiS40WJ7N-4" edge="1">
          <mxGeometry width="50" height="50" relative="1" as="geometry">
            <mxPoint x="10" y="30" as="sourcePoint" />
            <mxPoint y="40" as="targetPoint" />
          </mxGeometry>
        </mxCell>
        <mxCell id="N4_VROy1ueIJlBlE-Fv6-41" value="" style="endArrow=none;html=1;rounded=0;startSize=6;exitX=0.053;exitY=1.001;exitDx=0;exitDy=0;exitPerimeter=0;" parent="zKcQJ6je26KNiS40WJ7N-4" edge="1">
          <mxGeometry width="50" height="50" relative="1" as="geometry">
            <mxPoint x="10" y="20" as="sourcePoint" />
            <mxPoint y="30" as="targetPoint" />
          </mxGeometry>
        </mxCell>
        <mxCell id="N4_VROy1ueIJlBlE-Fv6-42" value="" style="endArrow=none;html=1;rounded=0;startSize=6;exitX=0.053;exitY=1.001;exitDx=0;exitDy=0;exitPerimeter=0;" parent="zKcQJ6je26KNiS40WJ7N-4" edge="1">
          <mxGeometry width="50" height="50" relative="1" as="geometry">
            <mxPoint x="10" y="10" as="sourcePoint" />
            <mxPoint y="20" as="targetPoint" />
          </mxGeometry>
        </mxCell>
        <mxCell id="N4_VROy1ueIJlBlE-Fv6-43" value="" style="endArrow=none;html=1;rounded=0;startSize=6;exitX=0.053;exitY=1.001;exitDx=0;exitDy=0;exitPerimeter=0;" parent="zKcQJ6je26KNiS40WJ7N-4" edge="1">
          <mxGeometry width="50" height="50" relative="1" as="geometry">
            <mxPoint x="10" as="sourcePoint" />
            <mxPoint y="10" as="targetPoint" />
          </mxGeometry>
        </mxCell>
        <mxCell id="zKcQJ6je26KNiS40WJ7N-31" value="" style="group" parent="myBx_Amw5foEbO6-DIyn-1" vertex="1" connectable="0">
          <mxGeometry y="40" width="40" height="80" as="geometry" />
        </mxCell>
        <mxCell id="zKcQJ6je26KNiS40WJ7N-32" value="" style="endArrow=none;html=1;rounded=0;" parent="zKcQJ6je26KNiS40WJ7N-31" edge="1">
          <mxGeometry width="50" height="50" relative="1" as="geometry">
            <mxPoint x="40" y="80" as="sourcePoint" />
            <mxPoint y="80" as="targetPoint" />
          </mxGeometry>
        </mxCell>
        <mxCell id="zKcQJ6je26KNiS40WJ7N-33" value="" style="endArrow=none;html=1;rounded=0;" parent="zKcQJ6je26KNiS40WJ7N-31" edge="1">
          <mxGeometry width="50" height="50" relative="1" as="geometry">
            <mxPoint x="39" as="sourcePoint" />
            <mxPoint as="targetPoint" />
          </mxGeometry>
        </mxCell>
        <mxCell id="zKcQJ6je26KNiS40WJ7N-34" value="" style="endArrow=classic;startArrow=classic;html=1;rounded=0;" parent="zKcQJ6je26KNiS40WJ7N-31" edge="1">
          <mxGeometry width="50" height="50" relative="1" as="geometry">
            <mxPoint x="10" y="80" as="sourcePoint" />
            <mxPoint x="10" as="targetPoint" />
          </mxGeometry>
        </mxCell>
        <mxCell id="amTEWInF5iUkod_gDk52-6" value="20" style="text;html=1;align=center;verticalAlign=middle;resizable=0;points=[];autosize=1;strokeColor=none;fillColor=none;rotation=270;" parent="zKcQJ6je26KNiS40WJ7N-31" vertex="1">
          <mxGeometry x="-20" y="25" width="40" height="30" as="geometry" />
        </mxCell>
      </root>
    </mxGraphModel>
  </diagram>
</mxfile>
